<svg width="120" height="69" viewBox="0 0 120 69" fill="none" xmlns="http://www.w3.org/2000/svg">
<path d="M13.375 8.4375C14.7083 8.41667 15.8021 8.65625 16.6562 9.15625C17.5312 9.65625 18.2396 10.25 18.7812 10.9375C19.3229 11.625 19.7396 12.3229 20.0312 13.0312C20.3229 13.7188 20.5521 14.2604 20.7188 14.6562C20.7604 14.7604 20.8438 14.8958 20.9688 15.0625C21.0729 15.2083 21.2188 15.3854 21.4062 15.5938C21.6146 15.7812 21.875 16 22.1875 16.25C21.5417 16.2708 20.9688 16.2917 20.4688 16.3125C19.9688 16.3125 19.5417 16.3229 19.1875 16.3438C18.7917 16.3646 18.4375 16.3854 18.125 16.4062C17.8125 16.4271 17.4271 16.4583 16.9688 16.5C16.5521 16.5417 16.0417 16.5833 15.4375 16.625C14.8333 16.6667 14.0938 16.7292 13.2188 16.8125C13.7396 16.1875 14.1458 15.6354 14.4375 15.1562C14.75 14.6562 14.9792 14.2188 15.125 13.8438C15.2917 13.4479 15.3854 13.1042 15.4062 12.8125C15.4479 12.5208 15.4375 12.2708 15.375 12.0625C15.25 11.5833 14.9271 11.2396 14.4062 11.0312C12.9062 10.6146 11.5938 10.9479 10.4688 12.0312C9.36458 13.0938 8.57292 14.8438 8.09375 17.2812C7.86458 18.4896 7.64583 19.75 7.4375 21.0625C7.25 22.3542 7.17708 23.5417 7.21875 24.625C7.26042 25.6875 7.46875 26.5521 7.84375 27.2188C8.21875 27.8854 8.86458 28.1979 9.78125 28.1562C10.6771 28.1146 11.4375 27.9688 12.0625 27.7188C12.6875 27.4479 13.1875 27.1354 13.5625 26.7812C13.9375 26.4062 14.1979 26.0104 14.3438 25.5938C14.5104 25.1562 14.5729 24.75 14.5312 24.375C14.4479 24.0833 14.2292 23.7708 13.875 23.4375C13.5625 23.1458 13.0938 22.8229 12.4688 22.4688C11.8438 22.0938 10.9479 21.7083 9.78125 21.3125C10.8854 21.25 11.7917 21.2083 12.5 21.1875C13.2292 21.1458 13.8021 21.1042 14.2188 21.0625C14.7188 21.0208 15.1042 20.9896 15.375 20.9688C15.625 20.9479 15.9896 20.9271 16.4688 20.9062C16.8854 20.8854 17.4167 20.875 18.0625 20.875C18.7292 20.875 19.5625 20.8646 20.5625 20.8438C20.1875 21.2188 19.8958 21.5625 19.6875 21.875C19.5833 22.0417 19.4896 22.1875 19.4062 22.3125C19.3229 22.5208 19.2917 22.9479 19.3125 23.5938C19.3125 24.1354 19.3542 24.9375 19.4375 26C19.5208 27.0417 19.6771 28.4688 19.9062 30.2812L15.75 30.8438L15.9375 26.625C15.4583 27.7708 14.8542 28.625 14.125 29.1875C13.4167 29.75 12.7396 30.1458 12.0938 30.375C11.3229 30.6458 10.5208 30.7708 9.6875 30.75C8.60417 30.6458 7.52083 30.3958 6.4375 30C5.35417 29.6042 4.39583 29 3.5625 28.1875C2.72917 27.3542 2.08333 26.2812 1.625 24.9688C1.1875 23.6562 1.05208 22.0312 1.21875 20.0938C1.40625 18.1562 1.86458 16.4688 2.59375 15.0312C3.34375 13.5729 4.27083 12.3646 5.375 11.4062C6.47917 10.4479 7.71875 9.72917 9.09375 9.25C10.4896 8.75 11.9167 8.47917 13.375 8.4375ZM32.4688 7.4375C33.5938 7.47917 34.7292 7.6875 35.875 8.0625C37.0417 8.41667 38.1146 9 39.0938 9.8125C40.0729 10.6042 40.9062 11.6354 41.5938 12.9062C42.2812 14.1562 42.7083 15.6875 42.875 17.5C43.0208 18.9792 42.8333 20.4479 42.3125 21.9062C41.8125 23.3438 41.1146 24.6667 40.2188 25.875C39.3229 27.0833 38.2917 28.1146 37.125 28.9688C35.9583 29.8021 34.7917 30.3542 33.625 30.625C32.9167 30.7917 32.1354 30.8125 31.2812 30.6875C30.4479 30.5417 29.5938 30.2812 28.7188 29.9062C27.8646 29.5104 27.0208 29.0104 26.1875 28.4062C25.375 27.8021 24.6354 27.1146 23.9688 26.3438C23.3021 25.5521 22.7396 24.6979 22.2812 23.7812C21.8438 22.8646 21.5729 21.9062 21.4688 20.9062C21.3646 20.0729 21.3542 19.1562 21.4375 18.1562C21.5417 17.1354 21.7396 16.125 22.0312 15.125C22.3438 14.1042 22.7708 13.125 23.3125 12.1875C23.875 11.2292 24.5833 10.3958 25.4375 9.6875C26.2917 8.95833 27.2917 8.39583 28.4375 8C29.6042 7.58333 30.9479 7.39583 32.4688 7.4375ZM26.875 20.0938C26.5833 22.3229 26.7917 24.1146 27.5 25.4688C28.2292 26.8229 29.3229 27.6458 30.7812 27.9375C31.4896 28.0833 32.1667 27.9375 32.8125 27.5C33.4792 27.0417 34.0833 26.3854 34.625 25.5312C35.1667 24.6771 35.6354 23.6771 36.0312 22.5312C36.4271 21.3854 36.7188 20.1875 36.9062 18.9375C37.0938 17.6875 37.1042 16.5625 36.9375 15.5625C36.7917 14.5417 36.5312 13.6771 36.1562 12.9688C35.7812 12.2396 35.3229 11.6771 34.7812 11.2812C34.2604 10.8854 33.7188 10.6667 33.1562 10.625C32.1771 10.5625 31.3229 10.8229 30.5938 11.4062C29.8646 11.9688 29.25 12.7083 28.75 13.625C28.25 14.5417 27.8438 15.5729 27.5312 16.7188C27.2396 17.8646 27.0208 18.9896 26.875 20.0938ZM43.875 8.34375C44.4792 8.44792 45.0104 8.52083 45.4688 8.5625C45.9479 8.60417 46.3438 8.63542 46.6562 8.65625C47.0312 8.67708 47.3542 8.6875 47.625 8.6875C47.8958 8.6875 48.2812 8.66667 48.7812 8.625C49.1979 8.58333 49.7396 8.53125 50.4062 8.46875C51.0938 8.40625 51.9375 8.30208 52.9375 8.15625C52.6458 8.23958 52.375 8.47917 52.125 8.875C51.8958 9.25 51.6875 9.65625 51.5 10.0938C51.2708 10.6146 51.0729 11.1875 50.9062 11.8125C50.7604 12.375 50.5729 13.1458 50.3438 14.125C50.1354 15.1042 49.9271 16.1667 49.7188 17.3125C49.5312 18.4583 49.3854 19.625 49.2812 20.8125C49.1771 21.9792 49.1562 23.0521 49.2188 24.0312C49.3021 25.0104 49.5 25.8229 49.8125 26.4688C50.125 27.0938 50.6042 27.4271 51.25 27.4688C52.2292 27.5521 53.0417 27.5625 53.6875 27.5C54.3542 27.4167 54.8958 27.3021 55.3125 27.1562C55.7292 27.0104 56.0521 26.8438 56.2812 26.6562C56.5104 26.4479 56.6875 26.25 56.8125 26.0625C57.1458 25.5833 57.4896 24.9688 57.8438 24.2188C58.1979 23.4688 58.5104 22.75 58.7812 22.0625C59.0729 21.375 59.3125 20.7917 59.5 20.3125C59.6875 19.8333 59.7812 19.6042 59.7812 19.625C59.7812 19.6667 59.7708 19.9062 59.75 20.3438C59.75 20.7604 59.7396 21.2708 59.7188 21.875C59.7188 22.4583 59.7083 23.0729 59.6875 23.7188C59.6875 24.3646 59.6771 24.9167 59.6562 25.375C59.6354 25.75 59.6146 26.1667 59.5938 26.625C59.5729 27.0208 59.5521 27.4896 59.5312 28.0312C59.5312 28.5729 59.5104 29.1667 59.4688 29.8125C58.5938 29.75 57.7604 29.7083 56.9688 29.6875C56.1771 29.6667 55.4792 29.6562 54.875 29.6562C54.1667 29.6562 53.5104 29.6667 52.9062 29.6875C52.2604 29.7083 51.5104 29.7396 50.6562 29.7812C49.9271 29.8229 49.0208 29.875 47.9375 29.9375C46.8542 29.9792 45.6042 30.0417 44.1875 30.125C44.3542 29.8333 44.4896 29.5625 44.5938 29.3125C44.7188 29.0625 44.8125 28.8542 44.875 28.6875C44.9583 28.4792 45.0104 28.3021 45.0312 28.1562C45.1562 27.4896 45.2604 26.6458 45.3438 25.625C45.4271 24.5833 45.4896 23.4792 45.5312 22.3125C45.5938 21.1458 45.625 19.9583 45.625 18.75C45.6458 17.5208 45.6458 16.3854 45.625 15.3438C45.6042 14.3021 45.5625 13.3958 45.5 12.625C45.4583 11.8542 45.3958 11.3229 45.3125 11.0312C45.2083 10.6979 45.0833 10.3646 44.9375 10.0312C44.8125 9.73958 44.6562 9.44792 44.4688 9.15625C44.3021 8.84375 44.1042 8.57292 43.875 8.34375ZM60.4062 8.71875C61.1354 8.82292 61.7708 8.90625 62.3125 8.96875C62.8542 9.03125 63.3021 9.08333 63.6562 9.125C64.0729 9.16667 64.4271 9.19792 64.7188 9.21875C65.0521 9.26042 65.4583 9.23958 65.9375 9.15625C66.4375 9.07292 66.9688 8.98958 67.5312 8.90625C68.0938 8.80208 68.6771 8.71875 69.2812 8.65625C69.8854 8.59375 70.4688 8.59375 71.0312 8.65625C71.4062 8.69792 71.8854 8.78125 72.4688 8.90625C73.0521 9.03125 73.6667 9.22917 74.3125 9.5C74.9792 9.77083 75.6458 10.125 76.3125 10.5625C76.9792 11 77.5833 11.5521 78.125 12.2188C78.6667 12.8854 79.1146 13.6771 79.4688 14.5938C79.8229 15.5104 80.0208 16.5833 80.0625 17.8125C80.125 19.6458 79.9583 21.3125 79.5625 22.8125C79.1667 24.3125 78.5521 25.5938 77.7188 26.6562C76.9062 27.7188 75.875 28.5521 74.625 29.1562C73.375 29.7604 71.9167 30.0938 70.25 30.1562C68.9792 30.2604 67.7292 30.3542 66.5 30.4375C65.9792 30.4792 65.4271 30.5104 64.8438 30.5312C64.2812 30.5521 63.7188 30.5729 63.1562 30.5938C62.5938 30.5938 62.0521 30.5833 61.5312 30.5625C61.0104 30.5417 60.5312 30.5104 60.0938 30.4688C60.5729 30.2396 60.9583 30.0104 61.25 29.7812C61.5625 29.5521 61.8021 29.3542 61.9688 29.1875C62.1562 28.9792 62.2917 28.7917 62.375 28.625C62.4167 28.3958 62.4792 27.9479 62.5625 27.2812C62.625 26.7188 62.7083 25.9167 62.8125 24.875C62.9167 23.8333 63.0417 22.4167 63.1875 20.625L63.375 18.4062C63.4792 17.0312 63.5208 15.9062 63.5 15.0312C63.5 14.1562 63.4792 13.4688 63.4375 12.9688C63.375 12.3854 63.2917 11.9583 63.1875 11.6875C63.1042 11.4583 62.9479 11.1875 62.7188 10.875C62.5104 10.625 62.2188 10.3229 61.8438 9.96875C61.4896 9.59375 61.0104 9.17708 60.4062 8.71875ZM67 20.2188C67.0417 22.0729 67.1354 23.5 67.2812 24.5C67.4479 25.4792 67.625 26.2083 67.8125 26.6875C68.0417 27.2292 68.2917 27.5521 68.5625 27.6562C68.9583 27.6562 69.4062 27.4896 69.9062 27.1562C70.4062 26.8021 70.8958 26.2708 71.375 25.5625C71.875 24.8542 72.3229 23.9688 72.7188 22.9062C73.1354 21.8438 73.4375 20.6042 73.625 19.1875C73.8125 17.7708 73.7604 16.5208 73.4688 15.4375C73.1771 14.3542 72.7917 13.4479 72.3125 12.7188C71.8333 11.9688 71.3438 11.4062 70.8438 11.0312C70.3438 10.6354 69.9688 10.4375 69.7188 10.4375C69.4271 10.4375 69.1667 10.5208 68.9375 10.6875C68.7083 10.8333 68.3854 11.1771 67.9688 11.7188C67.7604 12.0104 67.5729 12.4271 67.4062 12.9688C67.2604 13.4479 67.1354 14.0833 67.0312 14.875C66.9271 15.6667 66.8958 16.6875 66.9375 17.9375L67 20.2188ZM79.125 9.65625C80.5833 9.69792 81.7917 9.72917 82.75 9.75C83.7292 9.75 84.5208 9.75 85.125 9.75H86.7812H96.0938C96.1354 10.1667 96.1667 10.5729 96.1875 10.9688C96.2292 11.3438 96.25 11.6771 96.25 11.9688C96.25 12.3229 96.2396 12.6458 96.2188 12.9375C96.1979 13.2292 96.1667 13.5417 96.125 13.875C96.0833 14.1667 96.0417 14.4792 96 14.8125C95.9583 15.1458 95.8854 15.4896 95.7812 15.8438C95.4896 14.7188 95.0938 13.8646 94.5938 13.2812C94.1146 12.6979 93.625 12.2708 93.125 12C92.5417 11.6875 91.9271 11.5208 91.2812 11.5C90.4271 11.5417 89.7604 11.6146 89.2812 11.7188C88.8021 11.8229 88.4271 11.9688 88.1562 12.1562C87.8854 12.3438 87.6771 12.5625 87.5312 12.8125C87.4062 13.0417 87.2708 13.3021 87.125 13.5938C87 13.8438 86.8854 14.2292 86.7812 14.75C86.6771 15.1875 86.5729 15.7812 86.4688 16.5312C86.3854 17.2812 86.2917 18.25 86.1875 19.4375C86.75 19.2708 87.1979 19.1146 87.5312 18.9688C87.8854 18.8229 88.1667 18.6979 88.375 18.5938C88.6042 18.4688 88.7708 18.3542 88.875 18.25C88.9583 18.125 89.0833 17.8958 89.25 17.5625C89.375 17.2708 89.5417 16.875 89.75 16.375C89.9792 15.875 90.25 15.1875 90.5625 14.3125C90.6042 15.2708 90.625 16.0729 90.625 16.7188C90.625 17.3438 90.6354 17.8542 90.6562 18.25C90.6562 18.7083 90.6667 19.0729 90.6875 19.3438V20.5312C90.6875 20.9688 90.6875 21.5625 90.6875 22.3125C90.7083 23.0417 90.7396 23.9688 90.7812 25.0938C90.5312 24.3229 90.3021 23.7188 90.0938 23.2812C89.9062 22.8229 89.7396 22.4792 89.5938 22.25C89.4271 21.9792 89.2812 21.7917 89.1562 21.6875C89.0104 21.6458 88.8125 21.6042 88.5625 21.5625C88.3333 21.5417 88.0417 21.5312 87.6875 21.5312C87.3542 21.5312 86.9271 21.5833 86.4062 21.6875C86.3438 22.8333 86.3333 23.7604 86.375 24.4688C86.4375 25.1562 86.5208 25.6875 86.625 26.0625C86.7292 26.5 86.8542 26.8125 87 27C87.1875 27.1875 87.5625 27.3438 88.125 27.4688C88.6875 27.5729 89.3229 27.6146 90.0312 27.5938C90.7604 27.5521 91.5 27.4271 92.25 27.2188C93 27.0104 93.6667 26.6667 94.25 26.1875C94.6875 25.7917 95.1562 25.2917 95.6562 24.6875C96.0729 24.1667 96.5312 23.5104 97.0312 22.7188C97.5521 21.9271 98.0625 20.9688 98.5625 19.8438C98.4792 20.7812 98.4167 21.5625 98.375 22.1875C98.3542 22.7917 98.3229 23.2812 98.2812 23.6562C98.2396 24.0938 98.2083 24.4271 98.1875 24.6562C98.1875 24.9062 98.1562 25.2604 98.0938 25.7188C98.0521 26.1146 97.9792 26.6562 97.875 27.3438C97.7917 28.0104 97.6771 28.8646 97.5312 29.9062C96.5521 29.9271 95.625 29.9479 94.75 29.9688C93.875 29.9688 93.1042 29.9792 92.4375 30C91.6458 30.0208 90.9167 30.0417 90.25 30.0625C89.5625 30.0625 88.8021 30.0938 87.9688 30.1562C87.2396 30.1979 86.375 30.2604 85.375 30.3438C84.3958 30.4271 83.3125 30.5417 82.125 30.6875C82.2292 29.2708 82.3021 27.9375 82.3438 26.6875C82.4062 25.4167 82.4479 24.3021 82.4688 23.3438C82.4896 22.2188 82.4896 21.1771 82.4688 20.2188C82.5729 17.8229 82.5312 15.8854 82.3438 14.4062C82.1562 12.9271 81.9375 11.9792 81.6875 11.5625C81.5625 11.4167 81.3854 11.2396 81.1562 11.0312C80.9688 10.8646 80.7083 10.6667 80.375 10.4375C80.0417 10.2083 79.625 9.94792 79.125 9.65625ZM98.0938 8.84375C99.0312 9.01042 99.8021 9.125 100.406 9.1875C101.01 9.25 101.5 9.30208 101.875 9.34375C102.312 9.38542 102.656 9.39583 102.906 9.375H103.844C104.177 9.375 104.594 9.375 105.094 9.375C105.615 9.35417 106.26 9.34375 107.031 9.34375C107.469 10.3646 107.865 11.3021 108.219 12.1562C108.594 13.0104 108.906 13.7396 109.156 14.3438C109.448 15.0729 109.719 15.7292 109.969 16.3125C110.26 17.0417 110.573 17.8438 110.906 18.7188C111.24 19.5938 111.542 20.4167 111.812 21.1875C112.104 21.9583 112.344 22.5938 112.531 23.0938C112.719 23.5938 112.812 23.8229 112.812 23.7812C112.812 23.7604 112.823 23.5521 112.844 23.1562C112.865 22.7396 112.885 22.2292 112.906 21.625C112.927 21 112.948 20.3229 112.969 19.5938C113.01 18.8438 113.031 18.125 113.031 17.4375C113.052 16.7292 113.062 16.0833 113.062 15.5C113.062 14.9167 113.042 14.4792 113 14.1875C112.938 13.8333 112.812 13.4271 112.625 12.9688C112.458 12.5729 112.229 12.1042 111.938 11.5625C111.646 11 111.24 10.3646 110.719 9.65625C111.573 9.67708 112.271 9.6875 112.812 9.6875C113.354 9.6875 113.792 9.6875 114.125 9.6875C114.5 9.6875 114.792 9.67708 115 9.65625C115.271 9.65625 115.604 9.63542 116 9.59375C116.354 9.55208 116.792 9.52083 117.312 9.5C117.854 9.45833 118.521 9.40625 119.312 9.34375C118.854 9.76042 118.49 10.1562 118.219 10.5312C117.948 10.9062 117.729 11.2396 117.562 11.5312C117.375 11.8646 117.25 12.1771 117.188 12.4688C117.104 12.8438 117.031 13.4583 116.969 14.3125C116.927 15.1458 116.875 16.0833 116.812 17.125C116.771 18.1667 116.729 19.25 116.688 20.375C116.646 21.5 116.604 22.5312 116.562 23.4688C116.562 24.1771 116.542 24.9375 116.5 25.75C116.458 26.4375 116.417 27.2188 116.375 28.0938C116.333 28.9479 116.281 29.8125 116.219 30.6875L113.438 30.75C112.625 29.3125 111.938 28.0833 111.375 27.0625C110.833 26.0208 110.385 25.1667 110.031 24.5C109.635 23.7292 109.302 23.0833 109.031 22.5625C108.802 22.0625 108.5 21.4896 108.125 20.8438C107.812 20.3021 107.417 19.6354 106.938 18.8438C106.479 18.0521 105.927 17.1458 105.281 16.125C105.219 17.5625 105.188 18.7917 105.188 19.8125C105.208 20.8125 105.24 21.6458 105.281 22.3125C105.344 23.0833 105.417 23.7292 105.5 24.25C105.604 24.75 105.75 25.3125 105.938 25.9375C106.104 26.4792 106.302 27.1146 106.531 27.8438C106.781 28.5729 107.083 29.3958 107.438 30.3125C106.208 30.25 105.292 30.2188 104.688 30.2188H103.75C103.458 30.2188 103.062 30.25 102.562 30.3125C102.146 30.3542 101.573 30.4167 100.844 30.5C100.135 30.5833 99.25 30.6979 98.1875 30.8438C98.6875 30.2396 99.0833 29.6875 99.375 29.1875C99.6875 28.6667 99.9271 28.2292 100.094 27.875C100.302 27.4583 100.448 27.0938 100.531 26.7812C100.594 26.4479 100.635 25.875 100.656 25.0625C100.677 24.2292 100.677 23.2917 100.656 22.25C100.656 21.1875 100.635 20.0729 100.594 18.9062C100.573 17.7396 100.542 16.6562 100.5 15.6562C100.458 14.6562 100.406 13.8021 100.344 13.0938C100.302 12.3854 100.271 11.9479 100.25 11.7812C100.188 11.5104 100.062 11.2188 99.875 10.9062C99.7083 10.6354 99.4896 10.3333 99.2188 10C98.9479 9.64583 98.5729 9.26042 98.0938 8.84375Z" fill="black"/>
<path d="M30.2852 42.4219C30.9779 42.5859 31.5977 42.7135 32.1445 42.8047C32.7096 42.8776 33.1836 42.9323 33.5664 42.9688C34.0221 43.0234 34.4232 43.0417 34.7695 43.0234C35.207 43.0052 35.7539 42.9414 36.4102 42.832C37.0664 42.7227 37.7591 42.6133 38.4883 42.5039C39.2174 42.3945 39.9375 42.3034 40.6484 42.2305C41.3594 42.1576 41.9792 42.1484 42.5078 42.2031C43.0365 42.2578 43.5924 42.3854 44.1758 42.5859C44.7591 42.7682 45.306 43.0234 45.8164 43.3516C46.3268 43.6615 46.7643 44.0443 47.1289 44.5C47.5117 44.9557 47.7487 45.4844 47.8398 46.0859C47.931 46.6693 47.8763 47.2982 47.6758 47.9727C47.4753 48.6289 47.1562 49.276 46.7188 49.9141C46.2812 50.5339 45.7344 51.1081 45.0781 51.6367C44.4219 52.1654 43.6927 52.5938 42.8906 52.9219C42.2526 53.1589 41.5599 53.3411 40.8125 53.4688C40.1745 53.5781 39.4271 53.651 38.5703 53.6875C37.7318 53.7057 36.8385 53.6146 35.8906 53.4141C35.763 53.9427 35.6901 54.4349 35.6719 54.8906C35.6719 55.3281 35.6901 55.7201 35.7266 56.0664C35.7812 56.4674 35.8542 56.832 35.9453 57.1602C36.0547 57.4883 36.1914 57.8711 36.3555 58.3086C36.5013 58.6732 36.6654 59.1198 36.8477 59.6484C37.0482 60.1589 37.2852 60.7331 37.5586 61.3711C37.2305 61.3711 36.9115 61.3802 36.6016 61.3984C36.2917 61.3984 36.0091 61.4076 35.7539 61.4258C35.4622 61.444 35.1888 61.4622 34.9336 61.4805C34.6419 61.4987 34.3138 61.5352 33.9492 61.5898C33.6393 61.6263 33.2474 61.681 32.7734 61.7539C32.3177 61.8268 31.7982 61.918 31.2148 62.0273C31.5977 61.4805 31.8984 60.9792 32.1172 60.5234C32.3542 60.0495 32.5273 59.6393 32.6367 59.293C32.7643 58.8919 32.8464 58.5273 32.8828 58.1992C32.901 57.9258 32.901 57.4427 32.8828 56.75C32.8828 56.0573 32.8737 55.2552 32.8555 54.3438C32.8372 53.4323 32.8099 52.4753 32.7734 51.4727C32.737 50.4701 32.6914 49.5312 32.6367 48.6562C32.582 47.763 32.5182 46.9974 32.4453 46.3594C32.3906 45.7214 32.3359 45.3021 32.2812 45.1016C32.2083 44.8646 32.0807 44.6094 31.8984 44.3359C31.7526 44.099 31.543 43.8255 31.2695 43.5156C31.0143 43.1875 30.6862 42.8229 30.2852 42.4219ZM35.9453 47.8086C35.9271 47.9909 35.918 48.1823 35.918 48.3828C35.918 48.7656 35.9453 49.2578 36 49.8594C36.1276 50.1693 36.2826 50.4245 36.4648 50.625C36.6654 50.8255 36.875 50.9805 37.0938 51.0898C37.3307 51.1992 37.5677 51.2721 37.8047 51.3086C38.0417 51.3451 38.2786 51.3633 38.5156 51.3633C39.0625 51.3451 39.6367 51.2174 40.2383 50.9805C41.0404 50.6341 41.6055 50.1419 41.9336 49.5039C42.2617 48.8659 42.4349 48.2096 42.4531 47.5352C42.4714 46.8607 42.3529 46.2409 42.0977 45.6758C41.8607 45.1107 41.569 44.7279 41.2227 44.5273C40.931 44.3997 40.5573 44.3451 40.1016 44.3633C39.7005 44.3815 39.1992 44.4818 38.5977 44.6641C37.9961 44.8464 37.2578 45.1745 36.3828 45.6484C36.2917 45.9766 36.2188 46.2682 36.1641 46.5234C36.1094 46.7786 36.0638 47.0065 36.0273 47.207C35.9909 47.4258 35.9635 47.6263 35.9453 47.8086ZM47.8672 43.1602C48.487 43.2331 49.0065 43.2878 49.4258 43.3242C49.8633 43.3424 50.2188 43.3698 50.4922 43.4062C50.8203 43.4427 51.0755 43.4609 51.2578 43.4609C51.4583 43.4792 51.7591 43.4701 52.1602 43.4336C52.5065 43.3971 52.9714 43.3516 53.5547 43.2969C54.1562 43.2422 54.9219 43.1602 55.8516 43.0508C55.4323 43.4154 55.0951 43.7708 54.8398 44.1172C54.6029 44.4453 54.4206 44.737 54.293 44.9922C54.1289 45.3021 54.0286 45.5938 53.9922 45.8672C53.9193 46.3047 53.8555 46.9062 53.8008 47.6719C53.7643 48.4193 53.7279 49.2396 53.6914 50.1328C53.6549 51.026 53.6367 51.9466 53.6367 52.8945C53.6367 53.8424 53.6458 54.7448 53.6641 55.6016C53.7005 56.4401 53.7552 57.1875 53.8281 57.8438C53.9193 58.5 54.0286 58.974 54.1562 59.2656C54.3385 59.5938 54.5299 59.9219 54.7305 60.25C54.9128 60.5234 55.1315 60.806 55.3867 61.0977C55.6419 61.3893 55.9336 61.6263 56.2617 61.8086C55.1862 61.7539 54.3294 61.7266 53.6914 61.7266H52.707C52.4154 61.7266 52.0417 61.7448 51.5859 61.7812C51.2031 61.8177 50.7201 61.8542 50.1367 61.8906C49.5534 61.9271 48.8516 61.9818 48.0312 62.0547C48.4505 61.599 48.7786 61.1615 49.0156 60.7422C49.2526 60.3229 49.444 59.9583 49.5898 59.6484C49.7539 59.2839 49.8633 58.9375 49.918 58.6094C49.9909 58.1354 50.0456 57.5521 50.082 56.8594C50.1367 56.1484 50.1732 55.3919 50.1914 54.5898C50.2096 53.7695 50.2096 52.9401 50.1914 52.1016C50.1914 51.2448 50.1732 50.4245 50.1367 49.6406C50.1003 48.8568 50.0456 48.1458 49.9727 47.5078C49.918 46.8698 49.8451 46.3594 49.7539 45.9766C49.6992 45.7396 49.5898 45.4753 49.4258 45.1836C49.2799 44.9284 49.0794 44.6367 48.8242 44.3086C48.5872 43.9622 48.2682 43.5794 47.8672 43.1602ZM64.6836 41.793C65.3216 41.793 65.8958 41.9023 66.4062 42.1211C66.9349 42.3216 67.418 42.5495 67.8555 42.8047C68.3112 43.0599 68.7396 43.2969 69.1406 43.5156C69.5417 43.7161 69.9518 43.8164 70.3711 43.8164C70.6992 43.7982 71.0729 43.7526 71.4922 43.6797C71.8568 43.6068 72.276 43.4974 72.75 43.3516C73.2422 43.1875 73.7891 42.9505 74.3906 42.6406C73.7891 43.224 73.2969 43.7161 72.9141 44.1172C72.5495 44.5 72.2669 44.819 72.0664 45.0742C71.8294 45.3659 71.6562 45.5938 71.5469 45.7578C71.4375 45.9583 71.2734 46.2591 71.0547 46.6602C70.8542 47.0247 70.5807 47.5169 70.2344 48.1367C69.888 48.7383 69.4505 49.5312 68.9219 50.5156C68.9219 49.2578 68.7943 48.2826 68.5391 47.5898C68.3021 46.8971 68.0378 46.3685 67.7461 46.0039C67.3997 45.5846 67.0078 45.3203 66.5703 45.2109C66.1693 45.1562 65.7682 45.2292 65.3672 45.4297C64.9661 45.612 64.5651 45.8854 64.1641 46.25C63.7812 46.6146 63.4076 47.0521 63.043 47.5625C62.6966 48.0547 62.3776 48.5742 62.0859 49.1211C61.8125 49.668 61.5846 50.224 61.4023 50.7891C61.2201 51.3359 61.1016 51.8464 61.0469 52.3203C60.9922 52.7396 60.9831 53.2318 61.0195 53.7969C61.056 54.3438 61.138 54.9089 61.2656 55.4922C61.3932 56.0573 61.5573 56.6133 61.7578 57.1602C61.9583 57.707 62.2044 58.1992 62.4961 58.6367C62.806 59.056 63.1523 59.4023 63.5352 59.6758C63.918 59.931 64.3555 60.0495 64.8477 60.0312C65.3945 59.9948 65.9323 59.8307 66.4609 59.5391C66.9167 59.3021 67.3815 58.9375 67.8555 58.4453C68.3294 57.9349 68.7396 57.2148 69.0859 56.2852L73.1328 57.0234C71.9661 58.4453 70.8268 59.5117 69.7148 60.2227C68.6211 60.9336 67.6367 61.4349 66.7617 61.7266C65.7409 62.0547 64.7747 62.2096 63.8633 62.1914C62.7148 62.0638 61.6393 61.7174 60.6367 61.1523C59.6341 60.5872 58.7682 59.9036 58.0391 59.1016C57.3281 58.2812 56.7721 57.388 56.3711 56.4219C55.9701 55.4557 55.7969 54.5078 55.8516 53.5781C55.888 52.9583 56.0156 52.2383 56.2344 51.418C56.4531 50.5794 56.7448 49.7227 57.1094 48.8477C57.4922 47.9727 57.9479 47.1159 58.4766 46.2773C59.0052 45.4388 59.5885 44.6914 60.2266 44.0352C60.8646 43.3607 61.5573 42.8229 62.3047 42.4219C63.0703 42.0026 63.8633 41.793 64.6836 41.793ZM71.875 43.3242C73.151 43.3607 74.2083 43.388 75.0469 43.4062C75.9036 43.4062 76.5964 43.4062 77.125 43.4062H78.5742H86.7227C86.7591 43.7708 86.7865 44.1263 86.8047 44.4727C86.8411 44.8008 86.8594 45.0924 86.8594 45.3477C86.8594 45.6576 86.8503 45.9401 86.832 46.1953C86.8138 46.4505 86.7865 46.724 86.75 47.0156C86.7135 47.2708 86.6771 47.5443 86.6406 47.8359C86.6042 48.1276 86.5404 48.4284 86.4492 48.7383C86.194 47.7539 85.8477 47.0065 85.4102 46.4961C84.9909 45.9857 84.5625 45.612 84.125 45.375C83.6146 45.1016 83.0768 44.9557 82.5117 44.9375C81.7643 44.974 81.181 45.0378 80.7617 45.1289C80.3424 45.2201 80.0143 45.3477 79.7773 45.5117C79.5404 45.6758 79.3581 45.8672 79.2305 46.0859C79.1211 46.2865 79.0026 46.5143 78.875 46.7695C78.7656 46.9883 78.6654 47.3255 78.5742 47.7812C78.4831 48.1641 78.3919 48.6836 78.3008 49.3398C78.2279 49.9961 78.1458 50.8438 78.0547 51.8828C78.5469 51.737 78.9388 51.6003 79.2305 51.4727C79.5404 51.3451 79.7865 51.2357 79.9688 51.1445C80.1693 51.0352 80.3151 50.9349 80.4062 50.8438C80.4792 50.7344 80.5885 50.5339 80.7344 50.2422C80.8438 49.987 80.9896 49.6406 81.1719 49.2031C81.3724 48.7656 81.6094 48.1641 81.8828 47.3984C81.9193 48.237 81.9375 48.9388 81.9375 49.5039C81.9375 50.0508 81.9466 50.4974 81.9648 50.8438C81.9648 51.2448 81.974 51.5638 81.9922 51.8008V52.8398C81.9922 53.2227 81.9922 53.7422 81.9922 54.3984C82.0104 55.0365 82.0378 55.8477 82.0742 56.832C81.8555 56.1576 81.6549 55.6289 81.4727 55.2461C81.3086 54.8451 81.1628 54.5443 81.0352 54.3438C80.8893 54.1068 80.7617 53.9427 80.6523 53.8516C80.5247 53.8151 80.3516 53.7786 80.1328 53.7422C79.9323 53.724 79.6771 53.7148 79.3672 53.7148C79.0755 53.7148 78.7018 53.7604 78.2461 53.8516C78.1914 54.8542 78.1823 55.6654 78.2188 56.2852C78.2734 56.8867 78.3464 57.3516 78.4375 57.6797C78.5286 58.0625 78.638 58.3359 78.7656 58.5C78.9297 58.6641 79.2578 58.8008 79.75 58.9102C80.2422 59.0013 80.7982 59.0378 81.418 59.0195C82.056 58.9831 82.7031 58.8737 83.3594 58.6914C84.0156 58.5091 84.599 58.2083 85.1094 57.7891C85.4922 57.4427 85.9023 57.0052 86.3398 56.4766C86.7044 56.0208 87.1055 55.4466 87.543 54.7539C87.9987 54.0612 88.4453 53.2227 88.8828 52.2383C88.8099 53.0586 88.7552 53.7422 88.7188 54.2891C88.7005 54.8177 88.6732 55.2461 88.6367 55.5742C88.6003 55.957 88.5729 56.2487 88.5547 56.4492C88.5547 56.668 88.5273 56.9779 88.4727 57.3789C88.4362 57.7253 88.3724 58.1992 88.2812 58.8008C88.2083 59.3841 88.1081 60.1315 87.9805 61.043C87.1237 61.0612 86.3125 61.0794 85.5469 61.0977C84.7812 61.0977 84.1068 61.1068 83.5234 61.125C82.8307 61.1432 82.1927 61.1615 81.6094 61.1797C81.0078 61.1797 80.3424 61.207 79.6133 61.2617C78.9753 61.2982 78.2188 61.3529 77.3438 61.4258C76.487 61.4987 75.5391 61.599 74.5 61.7266C74.5911 60.487 74.6549 59.3203 74.6914 58.2266C74.7461 57.1146 74.7826 56.1393 74.8008 55.3008C74.819 54.3164 74.819 53.4049 74.8008 52.5664C74.8919 50.4701 74.8555 48.7747 74.6914 47.4805C74.5273 46.1862 74.3359 45.3568 74.1172 44.9922C74.0078 44.8646 73.8529 44.7096 73.6523 44.5273C73.4883 44.3815 73.2604 44.2083 72.9688 44.0078C72.6771 43.8073 72.3125 43.5794 71.875 43.3242Z" fill="black"/>
</svg>
